<?xml version="1.0" encoding="UTF-8"?>
<svg xmlns="http://www.w3.org/2000/svg" xmlns:xlink="http://www.w3.org/1999/xlink" width="64pt" height="64pt" viewBox="0 0 64 64" version="1.1">
<g id="surface1">
<path style=" stroke:none;fill-rule:nonzero;fill:rgb(44.313725%,67.45098%,69.019608%);fill-opacity:1;" d="M 23.96875 9.371094 L 24.222656 11.105469 L 23.195312 12.453125 L 25.898438 12.773438 L 28.984375 13.351562 L 28.726562 12.902344 L 28.46875 12.773438 L 26.796875 12.003906 L 26.410156 9.371094 Z M 23.96875 9.371094 "/>
<path style=" stroke:none;fill-rule:nonzero;fill:rgb(81.568627%,53.333333%,33.333333%);fill-opacity:1;" d="M 20.878906 9.179688 L 18.433594 9.691406 L 15.863281 9.820312 L 14.960938 10.140625 L 16.632812 12.902344 L 16.632812 13.09375 L 13.160156 14.507812 L 10.84375 16.046875 L 14.960938 15.984375 L 32.328125 15.984375 L 30.144531 13.863281 L 28.597656 13.289062 L 23.195312 12.386719 L 22.421875 12.324219 L 22.039062 11.296875 L 21.78125 9.886719 Z M 20.878906 9.179688 "/>
<path style=" stroke:none;fill-rule:nonzero;fill:rgb(29.411765%,61.960784%,34.509804%);fill-opacity:1;" d="M 14.960938 0 L 12.003906 2.4375 L 51.628906 14.890625 L 51.5 15.917969 L 18.304688 15.917969 L 11.746094 16.046875 L 2.351562 15.984375 L 2.480469 18.292969 L 7.757812 18.808594 L 8.398438 21.890625 L 9.6875 36.78125 L 12.003906 60.402344 L 12.515625 61.109375 L 14.1875 61.621094 L 17.664062 61.6875 L 18.5625 63.484375 L 18.820312 63.546875 L 29.628906 63.546875 L 31.558594 62.84375 L 31.6875 61.941406 L 49.957031 61.367188 L 54.460938 61.816406 L 57.933594 60.789062 L 59.992188 59.761719 L 61.277344 57.578125 L 60.632812 55.265625 L 55.875 53.148438 L 51.757812 52.699219 L 50.214844 52.890625 L 50.34375 46.539062 L 51.371094 27.988281 L 51.886719 20.15625 L 55.488281 17.910156 L 56.644531 13.03125 L 51.371094 11.039062 L 38.503906 7.1875 L 35.546875 6.613281 L 29.757812 4.558594 L 19.078125 0.960938 Z M 14.960938 0 "/>
<path style=" stroke:none;fill-rule:nonzero;fill:rgb(28.627451%,51.764706%,32.156863%);fill-opacity:1;" d="M 29.5 59.566406 L 26.28125 59.824219 L 18.949219 60.722656 L 17.921875 60.980469 L 18.5625 63.546875 L 18.820312 63.675781 L 29.886719 63.546875 L 30.65625 62.519531 Z M 29.5 59.566406 "/>
<path style="fill-rule:nonzero;fill:rgb(63.921569%,72.54902%,65.490196%);fill-opacity:1;stroke-width:2.25;stroke-linecap:butt;stroke-linejoin:miter;stroke:rgb(0%,0%,0%);stroke-opacity:1;stroke-miterlimit:4;" d="M 284.983447 346.122132 C 284.983447 331.743811 273.659033 320.078382 259.672705 320.078382 C 245.697656 320.078382 234.373242 331.743811 234.373242 346.122132 C 234.373242 360.523059 245.697656 372.188489 259.672705 372.188489 C 273.659033 372.188489 284.983447 360.523059 284.983447 346.122132 Z M 284.983447 346.122132 " transform="matrix(0.34632,0,0,0.172786,-37.402597,-2.613714)"/>
<path style=" stroke:none;fill-rule:nonzero;fill:rgb(0%,0%,0%);fill-opacity:1;" d="M 14.683594 0.117188 C 14.476562 0.183594 13.644531 0.738281 12.8125 1.34375 L 11.324219 2.449219 L 12.226562 2.8125 C 14.234375 3.605469 36.503906 10.640625 48.035156 14.128906 C 50.527344 14.890625 51.222656 15.183594 51.253906 15.476562 C 51.253906 15.824219 51.082031 15.875 49.800781 15.875 C 47.550781 15.875 46.855469 15.71875 46.371094 15.148438 C 46.027344 14.714844 45.816406 14.648438 45.054688 14.75 C 43.117188 14.992188 42.804688 14.941406 42.183594 14.300781 C 41.664062 13.75 41.488281 13.699219 40.519531 13.765625 C 39.792969 13.816406 39.308594 13.992188 38.925781 14.335938 C 38.546875 14.714844 38.164062 14.835938 37.367188 14.835938 C 36.363281 14.835938 36.328125 14.820312 36.535156 14.25 C 36.746094 13.730469 36.640625 13.609375 35.742188 13.28125 C 35.152344 13.058594 34.597656 12.710938 34.492188 12.488281 C 34.355469 12.261719 34.042969 12.074219 33.730469 12.074219 C 32.691406 12.074219 30.753906 12.644531 30.371094 13.058594 C 29.957031 13.523438 29.332031 13.507812 29.160156 13.007812 C 29.089844 12.832031 28.882812 12.609375 28.746094 12.523438 C 28.570312 12.4375 28.535156 12.523438 28.640625 12.730469 L 28.8125 13.09375 L 27.046875 12.746094 C 26.078125 12.574219 24.933594 12.417969 24.554688 12.417969 C 24 12.417969 23.894531 12.347656 24.070312 12.109375 C 24.207031 11.953125 24.382812 11.332031 24.484375 10.726562 C 24.65625 9.742188 24.761719 9.652344 25.488281 9.652344 C 26.285156 9.652344 26.320312 9.707031 26.355469 10.984375 L 26.425781 12.332031 L 26.703125 10.882812 C 26.875 10.085938 26.945312 9.394531 26.875 9.359375 C 26.804688 9.324219 26.078125 9.273438 25.246094 9.257812 L 23.722656 9.222656 L 23.617188 10.433594 C 23.480469 12.039062 23.03125 12.210938 22.753906 10.761719 C 22.511719 9.5 21.851562 8.964844 20.605469 8.964844 C 20.15625 8.964844 19.601562 9.082031 19.359375 9.238281 C 19.046875 9.445312 18.5625 9.480469 17.628906 9.414062 C 16.691406 9.34375 16.136719 9.394531 15.550781 9.621094 C 14.546875 10.050781 14.582031 10.671875 15.792969 11.96875 C 16.691406 12.972656 16.726562 13.007812 16.070312 13.179688 C 15.722656 13.28125 14.582031 13.785156 13.542969 14.300781 L 11.671875 15.234375 L 10.945312 14.785156 C 10.527344 14.542969 9.9375 14.148438 9.59375 13.90625 L 8.96875 13.457031 L 7.757812 13.90625 C 7.132812 14.164062 6.582031 14.421875 6.582031 14.492188 C 6.582031 14.578125 6.960938 14.871094 7.445312 15.148438 C 7.929688 15.441406 8.3125 15.71875 8.3125 15.769531 C 8.3125 15.824219 6.925781 15.875 5.195312 15.875 L 2.078125 15.875 L 2.078125 17.257812 C 2.078125 18.34375 2.183594 18.640625 2.5625 18.640625 C 2.839844 18.640625 3.773438 19.105469 4.640625 19.660156 C 5.507812 20.230469 6.613281 20.816406 7.097656 21.007812 L 7.964844 21.316406 L 8.484375 26.242188 C 8.761719 28.953125 9.316406 35.175781 9.695312 40.066406 C 10.910156 55.734375 11.464844 60.488281 11.984375 61.007812 C 12.640625 61.644531 13.472656 61.835938 15.6875 61.835938 L 17.59375 61.835938 L 17.835938 62.90625 L 18.078125 63.960938 L 24.347656 63.855469 L 30.613281 63.753906 L 31.585938 63.21875 C 32.625 62.628906 32.796875 62.285156 32.136719 62.058594 C 31.894531 61.992188 35.117188 61.886719 39.308594 61.835938 L 46.925781 61.730469 L 39.445312 61.699219 L 31.964844 61.664062 L 31.515625 60.609375 C 31.167969 59.832031 30.890625 59.519531 30.40625 59.449219 C 30.0625 59.417969 29.785156 59.3125 29.785156 59.226562 C 29.785156 59.019531 28.503906 59.035156 28.226562 59.242188 C 28.121094 59.332031 27.671875 59.417969 27.222656 59.417969 C 26.804688 59.417969 24.414062 59.710938 21.957031 60.089844 C 17.9375 60.695312 17.488281 60.796875 17.59375 61.128906 C 17.695312 61.457031 17.558594 61.488281 15.929688 61.488281 C 14.511719 61.488281 13.992188 61.402344 13.332031 61.058594 C 12.847656 60.832031 12.46875 60.503906 12.46875 60.332031 C 12.46875 59.570312 11.359375 48.652344 10.5625 41.707031 C 10.078125 37.523438 9.488281 31.582031 9.175781 28.488281 C 8.902344 25.394531 8.589844 21.921875 8.449219 20.746094 L 8.242188 18.640625 L 19.324219 18.640625 L 19.566406 20.039062 C 19.742188 21.023438 19.984375 21.457031 20.328125 21.523438 C 21.195312 21.699219 21.507812 21.195312 21.332031 19.882812 L 21.195312 18.640625 L 35.324219 18.640625 L 35.394531 19.625 C 35.394531 20.175781 35.394531 20.78125 35.359375 20.953125 C 35.324219 21.300781 35.84375 21.578125 36.640625 21.578125 C 36.953125 21.578125 37.054688 21.160156 37.054688 20.109375 L 37.054688 18.640625 L 51.253906 18.640625 L 51.082031 20.574219 C 50.769531 23.648438 50.25 35.570312 50.007812 44.574219 L 49.765625 52.796875 L 48.242188 53.195312 C 42.632812 54.683594 41.558594 58.726562 46.269531 60.796875 C 46.996094 61.109375 47.585938 61.457031 47.515625 61.523438 C 47.480469 61.609375 47.617188 61.664062 47.863281 61.628906 C 48.105469 61.609375 49.144531 61.699219 50.148438 61.816406 C 53.574219 62.25 56.761719 61.75 58.976562 60.4375 C 60.292969 59.675781 61.332031 58.433594 61.265625 57.707031 C 61.230469 57.429688 61.125 57.550781 60.917969 58.035156 C 59.914062 60.609375 53.75 62.078125 48.726562 60.917969 C 43.429688 59.710938 42.25 55.976562 46.613281 54.078125 C 48.382812 53.28125 51.289062 52.917969 53.679688 53.160156 C 57.417969 53.558594 60.292969 54.871094 60.917969 56.480469 C 61.125 56.964844 61.230469 57.082031 61.265625 56.808594 C 61.332031 56.082031 60.292969 54.835938 59.011719 54.09375 C 57.351562 53.109375 55.203125 52.625 52.433594 52.625 L 50.214844 52.625 L 50.214844 51.917969 C 50.214844 51.539062 50.457031 48.375 50.734375 44.902344 C 51.011719 41.429688 51.394531 35.640625 51.601562 32.03125 C 52.050781 23.304688 52.226562 21.664062 52.675781 21.160156 C 52.882812 20.9375 53.332031 20.246094 53.644531 19.660156 C 54.0625 18.828125 54.371094 18.535156 54.890625 18.5 C 56.136719 18.378906 56.726562 17.949219 57.109375 16.859375 C 57.628906 15.269531 57.90625 13.402344 57.59375 13.179688 C 56.625 12.46875 37.75 6.492188 36.988281 6.628906 C 36.710938 6.683594 35.601562 6.335938 34.457031 5.851562 C 33.316406 5.367188 31.308594 4.660156 29.957031 4.261719 C 28.640625 3.867188 24.933594 2.742188 21.75 1.757812 C 16.105469 0.0117188 15.445312 -0.144531 14.683594 0.117188 Z M 20.328125 1.601562 C 29.296875 4.46875 32.65625 5.679688 36.917969 7.5625 C 39.375 8.652344 43.359375 10.34375 45.785156 11.363281 C 48.207031 12.367188 50.113281 13.214844 50.078125 13.25 C 50.007812 13.265625 46.546875 12.175781 42.390625 10.8125 C 38.199219 9.445312 31.375 7.285156 27.1875 6.027344 C 22.996094 4.765625 18.148438 3.277344 16.382812 2.707031 L 13.195312 1.671875 L 13.75 1.222656 C 14.71875 0.425781 15.34375 0.132812 15.828125 0.21875 C 16.070312 0.273438 18.113281 0.894531 20.328125 1.601562 Z M 44.15625 9.308594 C 44.917969 9.566406 47.722656 10.414062 50.355469 11.191406 C 53.023438 11.953125 54.960938 12.589844 54.648438 12.589844 C 54.371094 12.589844 53.472656 13.058594 52.640625 13.644531 C 51.707031 14.320312 51.046875 14.628906 50.839844 14.527344 C 50.632812 14.421875 50.632812 14.214844 50.910156 13.957031 C 51.324219 13.59375 51.152344 13.472656 48.449219 12.175781 C 46.855469 11.398438 43.984375 10.050781 42.078125 9.171875 C 38.648438 7.582031 38.648438 7.582031 40.691406 8.203125 C 41.835938 8.566406 43.394531 9.050781 44.15625 9.308594 Z M 21.472656 9.929688 C 21.679688 10.171875 21.816406 10.898438 21.816406 11.539062 L 21.816406 12.730469 L 23.828125 12.851562 C 26.113281 12.988281 29.886719 13.765625 29.644531 14.042969 C 29.542969 14.148438 29.296875 14.5625 29.054688 14.957031 L 28.675781 15.703125 L 24.933594 15.703125 C 22.890625 15.703125 19.082031 15.753906 16.449219 15.824219 L 11.707031 15.925781 L 12.226562 15.425781 C 12.746094 14.90625 15.6875 13.457031 16.171875 13.457031 C 16.347656 13.457031 16.65625 13.386719 16.902344 13.300781 C 17.246094 13.195312 17.144531 12.886719 16.277344 11.832031 C 15.445312 10.761719 15.308594 10.433594 15.617188 10.136719 C 15.929688 9.84375 16.242188 9.808594 17.316406 9.878906 C 18.183594 9.929688 18.910156 9.878906 19.289062 9.722656 C 20.257812 9.359375 21.125 9.429688 21.472656 9.929688 Z M 54.371094 17.171875 L 54.371094 18.207031 L 2.769531 18.207031 L 2.769531 16.097656 L 28.570312 16.117188 L 54.371094 16.132812 Z M 28.882812 60.140625 C 28.988281 60.367188 29.195312 61.144531 29.332031 61.871094 L 29.542969 63.21875 L 27.496094 63.21875 C 26.390625 63.21875 23.964844 63.269531 22.128906 63.320312 L 18.839844 63.441406 L 18.425781 62.320312 C 18.183594 61.699219 18.007812 61.109375 18.007812 61.007812 C 18.007812 60.917969 19.808594 60.679688 21.992188 60.46875 C 24.171875 60.261719 26.320312 60.019531 26.734375 59.933594 C 28.050781 59.675781 28.640625 59.746094 28.882812 60.140625 Z M 28.882812 60.140625 "/>
<path style=" stroke:none;fill-rule:nonzero;fill:rgb(0%,0%,0%);fill-opacity:1;" d="M 50.390625 54.542969 C 48.761719 54.925781 47.203125 55.789062 46.890625 56.445312 C 46.789062 56.703125 46.613281 57.015625 46.546875 57.136719 C 46.199219 57.6875 47.203125 58.914062 48.519531 59.484375 C 50.667969 60.46875 53.679688 60.523438 55.792969 59.640625 C 56.832031 59.191406 57.835938 58.292969 57.835938 57.828125 C 57.800781 57.707031 57.59375 57.84375 57.351562 58.136719 C 56.382812 59.242188 53.542969 59.898438 51.117188 59.570312 C 47.308594 59.054688 45.992188 56.582031 48.867188 55.375 C 51.429688 54.300781 55.929688 54.820312 57.386719 56.375 L 57.871094 56.910156 L 57.664062 56.394531 C 57.003906 54.769531 53.402344 53.851562 50.390625 54.542969 Z M 50.390625 54.542969 "/>
<path style="fill-rule:nonzero;fill:rgb(0%,0%,0%);fill-opacity:1;stroke-width:0.75;stroke-linecap:butt;stroke-linejoin:miter;stroke:rgb(0%,0%,0%);stroke-opacity:1;stroke-miterlimit:4;" d="M 200.298486 372.00763 L 256.70625 370.289466 L 254.845166 372.143274 L 224.391064 372.504993 L 196.147705 374.743128 Z M 200.298486 372.00763 " transform="matrix(0.34632,0,0,0.172786,-37.402597,-2.613714)"/>
<path style="fill-rule:nonzero;fill:rgb(0%,0%,0%);fill-opacity:1;stroke-width:0.75;stroke-linecap:butt;stroke-linejoin:miter;stroke:rgb(0%,0%,0%);stroke-opacity:1;stroke-miterlimit:4;" d="M 183.153955 70.854163 L 184.259326 84.961194 L 190.947949 89.799182 L 192.436816 94.637171 L 195.403271 94.998889 L 190.575732 88.307093 L 186.864844 84.599475 L 184.631543 70.854163 Z M 183.153955 70.854163 " transform="matrix(0.34632,0,0,0.172786,-37.402597,-2.613714)"/>
</g>
</svg>
